<svg width="20" height="21" viewBox="0 0 20 21" fill="none" xmlns="http://www.w3.org/2000/svg">
<path fill-rule="evenodd" clip-rule="evenodd" d="M5.33435 1.13379C3.01872 1.13379 1.125 3.05061 1.125 5.43571V15.0396C1.125 17.4247 3.01872 19.3415 5.33435 19.3415H14.753C17.0687 19.3415 18.9624 17.4247 18.9624 15.0396V5.43571C18.9624 3.05061 17.0687 1.13379 14.753 1.13379H5.33435ZM0.125 5.43571C0.125 2.51676 2.44817 0.133789 5.33435 0.133789H14.753C17.6392 0.133789 19.9624 2.51676 19.9624 5.43571V15.0396C19.9624 17.9585 17.6392 20.3415 14.753 20.3415H5.33435C2.44817 20.3415 0.125 17.9585 0.125 15.0396V5.43571ZM10.5625 6.8903C9.88485 6.78784 9.1924 6.90572 8.58323 7.22802C7.9739 7.5504 7.47801 8.06146 7.1677 8.69011C6.85732 9.31886 6.749 10.0322 6.85885 10.7283C6.96869 11.4243 7.29077 12.0658 7.77756 12.5622C8.26421 13.0584 8.89059 13.3843 9.56701 13.4953C10.2434 13.6062 10.9371 13.4971 11.5501 13.1825C12.1632 12.8678 12.6652 12.3631 12.9831 11.7384C13.301 11.1137 13.4179 10.4018 13.3165 9.70437C13.2131 8.99302 12.8882 8.33593 12.3916 7.82962C11.8952 7.32346 11.2537 6.99482 10.5625 6.8903ZM8.11557 6.34411C8.91317 5.92212 9.82185 5.76695 10.712 5.90154C11.6199 6.03881 12.4588 6.46999 13.1056 7.12943C13.7522 7.78873 14.1724 8.64123 14.3061 9.56046C14.4372 10.4616 14.2863 11.3823 13.8743 12.192C13.4622 13.0018 12.8093 13.6602 12.0067 14.0721C11.204 14.4841 10.2935 14.6278 9.40509 14.4821C8.51676 14.3363 7.69762 13.9089 7.0636 13.2624C6.42971 12.616 6.01302 11.7836 5.87107 10.8842C5.72913 9.98471 5.86882 9.06221 6.27099 8.24747C6.67323 7.43261 7.31812 6.76603 8.11557 6.34411ZM15.224 4.45553C14.9478 4.45553 14.724 4.67939 14.724 4.95553C14.724 5.23167 14.9478 5.45553 15.224 5.45553H15.2348C15.5109 5.45553 15.7348 5.23167 15.7348 4.95553C15.7348 4.67939 15.5109 4.45553 15.2348 4.45553H15.224Z" fill="black"/>
</svg>
