<svg width="20" height="24" viewBox="0 0 20 24" fill="none" xmlns="http://www.w3.org/2000/svg">
<path fill-rule="evenodd" clip-rule="evenodd" d="M10 0C9.35238 0 8.71155 0.132365 8.11428 0.389032C7.51706 0.645679 6.97564 1.02133 6.52042 1.49361C6.06524 1.96585 5.7051 2.52548 5.45971 3.14012C5.28982 3.56563 5.17712 4.012 5.12385 4.46681H2C0.895431 4.46681 0 5.36224 0 6.46681V21.9957C0 23.1003 0.895431 23.9957 2 23.9957H18C19.1046 23.9957 20 23.1003 20 21.9957V6.46681C20 5.36225 19.1046 4.46681 18 4.46681H14.8762C14.8229 4.012 14.7102 3.56563 14.5403 3.14012C14.2949 2.52548 13.9348 1.96584 13.4796 1.49361C13.0244 1.02133 12.4829 0.645678 11.8857 0.389032C11.2885 0.132365 10.6476 0 10 0ZM13.8677 4.46681C13.8201 4.13913 13.7342 3.81808 13.6116 3.51091C13.4136 3.01491 13.1238 2.5654 12.7596 2.18759C12.3955 1.80982 11.9642 1.51118 11.4909 1.30779C11.0176 1.10441 10.5111 1 10 1C9.48891 1 8.98236 1.10441 8.50911 1.30779C8.03581 1.51118 7.60453 1.80982 7.24041 2.18759C6.87625 2.5654 6.58645 3.01491 6.38842 3.51091C6.26579 3.81808 6.17992 4.13913 6.13232 4.46681H13.8677ZM2 5.46681H18C18.5523 5.46681 19 5.91453 19 6.46681V21.9957C19 22.548 18.5523 22.9957 18 22.9957H2C1.44772 22.9957 1 22.548 1 21.9957V6.46681C1 5.91453 1.44771 5.46681 2 5.46681Z" fill="white"/>
</svg>
